<svg
  width="32"
  height="32"
  viewBox="0 0 32 32"
  fill="none"
  xmlns="http://www.w3.org/2000/svg"
>
  <rect width="32" height="32" rx="4" fill="#FF0099" />
  <g clip-path="url(#clip0_1011_8)">
    <g clip-path="url(#clip1_1011_8)">
      <path
        d="M19.39 8.39C19.5157 8.51583 19.6727 8.60585 19.8448 8.6508C20.0169 8.69574 20.1978 8.69397 20.369 8.64567C20.5402 8.59738 20.6954 8.5043 20.8186 8.37604C20.9418 8.24778 21.0286 8.08897 21.07 7.916C21.1738 7.48389 21.3909 7.08727 21.699 6.76697C22.007 6.44668 22.3949 6.21428 22.8226 6.09372C23.2503 5.97316 23.7025 5.96879 24.1325 6.08107C24.5624 6.19334 24.9547 6.4182 25.2689 6.73249C25.5831 7.04678 25.8078 7.43913 25.9199 7.86915C26.0321 8.29916 26.0276 8.7513 25.9069 9.17899C25.7862 9.60668 25.5536 9.99446 25.2332 10.3024C24.9128 10.6104 24.5161 10.8273 24.084 10.931C23.911 10.9724 23.7522 11.0592 23.624 11.1824C23.4957 11.3056 23.4026 11.4608 23.3543 11.632C23.306 11.8032 23.3043 11.9841 23.3492 12.1562C23.3941 12.3283 23.4842 12.4853 23.61 12.611L25.293 14.293C25.5172 14.5172 25.695 14.7833 25.8163 15.0762C25.9376 15.3691 26.0001 15.683 26.0001 16C26.0001 16.317 25.9376 16.6309 25.8163 16.9238C25.695 17.2167 25.5172 17.4828 25.293 17.707L23.61 19.39C23.4843 19.5158 23.3273 19.6059 23.1552 19.6508C22.9831 19.6957 22.8022 19.694 22.631 19.6457C22.4598 19.5974 22.3046 19.5043 22.1814 19.376C22.0582 19.2478 21.9714 19.089 21.93 18.916C21.8262 18.4839 21.6091 18.0873 21.301 17.767C20.993 17.4467 20.6051 17.2143 20.1774 17.0937C19.7497 16.9732 19.2975 16.9688 18.8675 17.0811C18.4376 17.1933 18.0453 17.4182 17.7311 17.7325C17.4169 18.0468 17.1922 18.4391 17.0801 18.8691C16.9679 19.2992 16.9724 19.7513 17.0931 20.179C17.2138 20.6067 17.4464 20.9945 17.7668 21.3024C18.0872 21.6104 18.4839 21.8273 18.916 21.931C19.089 21.9724 19.2478 22.0592 19.376 22.1824C19.5043 22.3056 19.5974 22.4608 19.6457 22.632C19.694 22.8032 19.6957 22.9841 19.6508 23.1562C19.6059 23.3283 19.5158 23.4853 19.39 23.611L17.707 25.293C17.4828 25.5172 17.2167 25.695 16.9238 25.8163C16.6309 25.9376 16.317 26.0001 16 26.0001C15.683 26.0001 15.3691 25.9376 15.0762 25.8163C14.7833 25.695 14.5172 25.5172 14.293 25.293L12.61 23.61C12.4843 23.4842 12.3273 23.3941 12.1552 23.3492C11.9831 23.3043 11.8022 23.306 11.631 23.3543C11.4598 23.4026 11.3046 23.4957 11.1814 23.624C11.0582 23.7522 10.9714 23.911 10.93 24.084C10.8262 24.5161 10.6091 24.9127 10.301 25.233C9.99298 25.5533 9.60512 25.7857 9.17739 25.9063C8.74966 26.0268 8.29752 26.0312 7.86754 25.9189C7.43756 25.8067 7.04528 25.5818 6.7311 25.2675C6.41692 24.9532 6.19219 24.5609 6.08006 24.1308C5.96792 23.7008 5.97244 23.2487 6.09314 22.821C6.21384 22.3933 6.44637 22.0055 6.76677 21.6976C7.08717 21.3896 7.48386 21.1727 7.916 21.069C8.08898 21.0276 8.24778 20.9408 8.37604 20.8176C8.5043 20.6944 8.59738 20.5392 8.64568 20.368C8.69397 20.1968 8.69574 20.0159 8.6508 19.8438C8.60586 19.6717 8.51583 19.5147 8.39 19.389L6.707 17.707C6.48283 17.4828 6.305 17.2167 6.18368 16.9238C6.06236 16.6309 5.99991 16.317 5.99991 16C5.99991 15.683 6.06236 15.3691 6.18368 15.0762C6.305 14.7833 6.48283 14.5172 6.707 14.293L8.39 12.61C8.5157 12.4842 8.67269 12.3941 8.84478 12.3492C9.01687 12.3043 9.19783 12.306 9.36901 12.3543C9.54018 12.4026 9.69538 12.4957 9.8186 12.624C9.94182 12.7522 10.0286 12.911 10.07 13.084C10.1738 13.5161 10.3909 13.9127 10.699 14.233C11.007 14.5533 11.3949 14.7857 11.8226 14.9063C12.2503 15.0268 12.7025 15.0312 13.1325 14.9189C13.5624 14.8067 13.9547 14.5818 14.2689 14.2675C14.5831 13.9532 14.8078 13.5609 14.9199 13.1308C15.0321 12.7008 15.0276 12.2487 14.9069 11.821C14.7862 11.3933 14.5536 11.0055 14.2332 10.6976C13.9128 10.3896 13.5161 10.1727 13.084 10.069C12.911 10.0276 12.7522 9.94082 12.624 9.8176C12.4957 9.69438 12.4026 9.53918 12.3543 9.368C12.306 9.19682 12.3043 9.01586 12.3492 8.84378C12.3941 8.67169 12.4842 8.5147 12.61 8.389L14.293 6.707C14.5172 6.48282 14.7833 6.305 15.0762 6.18368C15.3691 6.06235 15.683 5.99991 16 5.99991C16.317 5.99991 16.6309 6.06235 16.9238 6.18368C17.2167 6.305 17.4828 6.48282 17.707 6.707L19.39 8.39Z"
        stroke="white"
        stroke-width="2"
        stroke-linecap="round"
        stroke-linejoin="round"
      />
    </g>
  </g>
  <defs>
    <clipPath id="clip0_1011_8">
      <rect width="24" height="24" fill="white" transform="translate(4 4)" />
    </clipPath>
    <clipPath id="clip1_1011_8">
      <rect width="24" height="24" fill="white" transform="translate(4 4)" />
    </clipPath>
  </defs>
</svg>
